<?xml version="1.0" encoding="UTF-8" standalone="no"?>
<svg width="20px" height="20px" viewBox="0 0 20 20" version="1.1" xmlns="http://www.w3.org/2000/svg" xmlns:xlink="http://www.w3.org/1999/xlink" xmlns:sketch="http://www.bohemiancoding.com/sketch/ns">
    <!-- Generator: Sketch 3.3 (11970) - http://www.bohemiancoding.com/sketch -->
    <title>check</title>
    <desc>Created with Sketch.</desc>
    <defs></defs>
    <g id="Page-1" stroke="none" stroke-width="1" fill="none" fill-rule="evenodd" sketch:type="MSPage">
        <g id="Notifications-SPEC-2" sketch:type="MSArtboardGroup" transform="translate(-3067.000000, -1423.000000)">
            <g id="Save-Successful-3-+-Flash-Messages-+-#F9FAFB-+-Path-1280" sketch:type="MSLayerGroup" transform="translate(3051.000000, 1369.000000)">
                <g id="Save-Successful-3" transform="translate(0.000000, 36.000000)" sketch:type="MSShapeGroup">
                    <g id="check" transform="translate(16.000000, 18.000000)">
                        <path d="M9.9876161,19.5811765 C4.51517028,19.5811765 0.080495356,15.3682353 0.080495356,10.1705882 C0.080495356,4.97058824 4.51517028,0.757647059 9.9876161,0.757647059 C15.4588235,0.757647059 19.8947368,4.97058824 19.8947368,10.1705882 C19.8947368,15.3682353 15.4588235,19.5811765 9.9876161,19.5811765 Z" id="Fill-6" fill="#058423"></path>
                        <path d="M16.2873065,7.39294118 C16.2414861,7.27176471 16.0668731,7.02941176 15.9021672,6.86235294 L15.5368421,6.48941176 C15.3708978,6.32 15.1356037,6.14352941 15.0142415,6.09764706 C14.8965944,6.04823529 14.495356,6.32 14.3294118,6.48941176 L7.67925697,13.2682353 C7.51455108,13.4364706 7.24086687,13.4388235 7.07368421,13.2682353 L4.70092879,10.8494118 C4.5374613,10.68 4.30216718,10.5047059 4.18080495,10.4564706 C4.06068111,10.4105882 3.6619195,10.68 3.49473684,10.8494118 L3.12941176,11.2223529 C2.96346749,11.3917647 2.79009288,11.6305882 2.74427245,11.7529412 C2.69845201,11.8764706 2.96346749,12.2847059 3.12941176,12.4529412 L6.79133127,16.1870588 C6.95851393,16.3552941 7.19256966,16.5341176 7.31393189,16.58 C7.43405573,16.6258824 7.83405573,16.3564706 8,16.1870588 L8.36532508,15.8141176 C8.53003096,15.6447059 8.67739938,15.4905882 8.69473684,15.4694118 C8.70959752,15.4517647 8.8755418,15.2564706 9.04024768,15.0858824 L15.9021672,8.09411765 C16.0668731,7.92352941 16.3331269,7.51529412 16.2873065,7.39294118" id="Fill-7" fill="#FFFFFF"></path>
                    </g>
                </g>
            </g>
        </g>
    </g>
</svg>